<svg id="forum" viewBox="0 0 40 40" fill="none" xmlns="http://www.w3.org/2000/svg">
    <path d="M26 21.5C26 21.2239 26.2239 21 26.5 21H27.5C27.7761 21 28 21.2239 28 21.5C28 21.7761 27.7761 22 27.5 22H26.5C26.2239 22 26 21.7761 26 21.5Z"
          fill="currentColor"/>
    <path d="M18.5 24C18.2239 24 18 24.2239 18 24.5C18 24.7761 18.2239 25 18.5 25H27.5C27.7761 25 28 24.7761 28 24.5C28 24.2239 27.7761 24 27.5 24H18.5Z"
          fill="currentColor"/>
    <path d="M12 13.5C12 13.2239 12.2239 13 12.5 13H21.5C21.7761 13 22 13.2239 22 13.5C22 13.7761 21.7761 14 21.5 14H12.5C12.2239 14 12 13.7761 12 13.5Z"
          fill="currentColor"/>
    <path d="M12.5 16C12.2239 16 12 16.2239 12 16.5C12 16.7761 12.2239 17 12.5 17H21.5C21.7761 17 22 16.7761 22 16.5C22 16.2239 21.7761 16 21.5 16H12.5Z"
          fill="currentColor"/>
    <path fill-rule="evenodd" clip-rule="evenodd"
          d="M23 8H11C9.34315 8 8 9.34315 8 11V22.2338C8 23.7884 9.69595 24.7486 11.029 23.9488L14 22.1662V27.5C14 28.8807 15.1193 30 16.5 30H25.7834C25.8548 30 25.9253 30.0153 25.9903 30.0448L29.8793 31.8125C30.8724 32.264 32 31.5379 32 30.447V19C32 17.6193 30.8807 16.5 29.5 16.5H26V11C26 9.34315 24.6569 8 23 8ZM26 17.5V19C26 20.6569 24.6569 22 23 22H15V27.5C15 28.3284 15.6716 29 16.5 29H25.7834C25.9975 29 26.2092 29.0458 26.4041 29.1345L30.2931 30.9022C30.6241 31.0527 31 30.8106 31 30.447V19C31 18.1716 30.3284 17.5 29.5 17.5H26ZM23 9H11C9.89543 9 9 9.89543 9 11V22.2338C9 23.0111 9.84797 23.4912 10.5145 23.0913L13.7625 21.1425C13.9179 21.0493 14.0957 21 14.277 21H23C24.1046 21 25 20.1046 25 19V11C25 9.89543 24.1046 9 23 9Z"
          fill="currentColor"/>
</svg>
