<svg id="reddit" viewBox="0 0 40 40" fill="none" xmlns="http://www.w3.org/2000/svg">
    <path fill-rule="evenodd" clip-rule="evenodd"
          d="M28.4934 16.6566C30.427 16.6566 32 18.2716 32 20.257C32 21.5296 31.3504 22.6474 30.3783 23.2845C29.9995 27.0307 25.5231 30 20.0647 30C14.6412 30 10.1876 27.07 9.75862 23.3578C8.71121 22.7358 8 21.584 8 20.2562C8 18.2701 9.57226 16.6558 11.5066 16.6558C12.2079 16.6558 12.8598 16.8705 13.409 17.2347C13.3926 17.2461 13.3774 17.2582 13.3622 17.2703C13.347 17.2823 13.3318 17.2944 13.3154 17.3058C14.9478 16.3203 17.0236 15.6885 19.304 15.5721L21.1296 10.3665L25.0408 11.2961C25.5223 10.5215 26.3773 10 27.3608 10C28.8676 10 30.0961 11.2183 30.0961 12.7169C30.0961 14.2155 28.8669 15.4338 27.3608 15.4338C25.8524 15.4338 24.6255 14.2148 24.6255 12.7169C24.6255 12.6548 24.6334 12.5954 24.6414 12.5358C24.6453 12.5069 24.6492 12.478 24.6521 12.4486L21.9168 11.7979L20.5963 15.5645C22.8874 15.6462 24.9853 16.2424 26.6488 17.2022C27.1851 16.8606 27.8149 16.6566 28.4934 16.6566ZM28.876 12.7184C28.876 11.8871 28.1952 11.2107 27.3593 11.2107C26.5226 11.2107 25.841 11.8863 25.841 12.7184C25.841 13.549 26.5203 14.2254 27.3593 14.2254C28.1945 14.2254 28.876 13.549 28.876 12.7184ZM12.287 18.0192C12.0421 17.9255 11.7819 17.8658 11.5058 17.8658C10.2432 17.8658 9.21476 18.9389 9.21476 20.257C9.21476 20.8721 9.44067 21.4314 9.80654 21.8561C10.0743 20.396 10.9635 19.0735 12.287 18.0192ZM10.9308 22.7743C10.9308 26.0928 15.0269 28.7923 20.0631 28.7923C25.0986 28.7923 29.194 26.0921 29.194 22.7743C29.194 19.4559 25.0986 16.7563 20.0631 16.7563C15.0269 16.7563 10.9308 19.4551 10.9308 22.7743ZM27.8012 17.9905C29.1042 19.0183 29.9911 20.3038 30.2901 21.7246C30.5943 21.3188 30.7814 20.8117 30.783 20.257C30.783 18.9382 29.7553 17.8658 28.4934 17.8658C28.2508 17.8658 28.021 17.9164 27.8012 17.9905ZM18.0436 21.5568C18.0436 22.4442 17.3196 23.1635 16.4265 23.1635C15.5333 23.1635 14.8093 22.4442 14.8093 21.5568C14.8093 20.6695 15.5333 19.9501 16.4265 19.9501C17.3196 19.9501 18.0436 20.6695 18.0436 21.5568ZM23.3803 23.1635C24.2734 23.1635 24.9975 22.4442 24.9975 21.5568C24.9975 20.6695 24.2734 19.9501 23.3803 19.9501C22.4872 19.9501 21.7632 20.6695 21.7632 21.5568C21.7632 22.4442 22.4872 23.1635 23.3803 23.1635ZM16.8068 25.1625C16.93 25.2585 19.6942 27.3753 23.1202 25.1285C23.4001 24.9441 23.7774 25.0219 23.9638 25.3015C24.1478 25.5789 24.0702 25.9538 23.7896 26.1382C22.3976 27.0503 21.0794 27.3564 19.9392 27.3564C17.6458 27.3564 16.0667 26.123 16.0439 26.1041C15.7822 25.8948 15.7427 25.5154 15.9526 25.2539C16.1625 24.9947 16.5444 24.9531 16.8068 25.1625Z"
          fill="currentColor"/>
</svg>
