<svg width="60" height="60" viewBox="0 0 60 60" fill="none" xmlns="http://www.w3.org/2000/svg">
<circle cx="30" cy="30" r="24" fill="#3D3D3C"/>
<path d="M43.7505 10.3271L43.248 10.704L42 10.8L40.368 10.704L36.528 9.936H33.456L31.632 11.28L30.864 13.392L36.816 16.752L38.064 22.608L33.456 29.04L22.896 35.088L19.536 44.88L23.856 50.64L24.3159 53.3229C13.8046 50.7701 6 41.2965 6 30C6 16.7452 16.7452 6 30 6C35.115 6 39.8562 7.60012 43.7505 10.3271Z" fill="#D21318"/>
<path fill-rule="evenodd" clip-rule="evenodd" d="M43.8934 10.428C43.4386 10.7276 42.7052 11.0879 41.808 11.0879C41.1881 11.0879 40.0211 10.6987 38.9279 10.5119C37.3121 10.236 37.1999 9.74394 33.7439 10.1279C32.016 10.2296 32.016 12.336 32.016 12.336C32.016 12.336 32.88 11.9519 34.32 11.9519C39.5039 11.9519 41.712 15.9839 41.712 15.9839C41.712 15.9839 40.08 15.2159 40.08 15.6959C40.5599 17.8079 44.88 18.9599 44.88 18.9599C44.88 18.9599 41.9999 19.6319 41.2319 18.8639C44.2079 25.1039 38.544 29.136 38.544 29.136C38.544 29.136 34.4159 32.0159 31.632 32.304C35.2799 32.6879 35.376 33.36 35.376 33.36C35.376 33.36 22.224 32.304 22.224 42.576C22.224 48.72 28.08 48.624 28.08 48.624C28.08 48.624 27.5039 49.104 25.68 49.104C25.68 49.296 25.8719 49.488 27.792 49.488C31.6319 49.488 35.376 45.456 35.376 45.456C35.376 45.456 35.4719 45.8399 34.992 46.992C40.0674 42.279 42.5759 42.3578 43.3252 42.3814C43.3695 42.3828 43.4078 42.384 43.44 42.384C46.0319 42.384 46.992 43.44 46.992 43.44C46.992 43.44 43.7279 42.2879 40.848 45.456C42.9599 44.8799 44.016 45.456 44.016 45.456C44.016 45.456 40.9439 45.8399 39.216 47.664C37.488 49.488 35.76 51.984 35.76 51.984C35.76 51.984 36.912 49.872 36.624 49.68C34.0302 52.5881 30.986 53.6944 29.9676 53.9999C26.5049 53.9954 23.2141 53.2575 20.242 51.9333C17.7889 49.898 16.6552 45.7376 16.56 44.976C16.4639 44.208 16.176 47.472 16.176 47.472C16.176 47.472 15.792 46.704 15.792 42.576C15.792 38.448 18.48 33.648 18.48 33.648C18.48 33.648 17.1359 34.032 15.408 35.856C18.2879 30.096 27.696 28.08 27.696 28.08C27.696 28.08 36.528 25.488 36.528 21.648C36.528 17.808 33.072 17.5199 33.072 17.5199C33.072 17.5199 31.728 17.5199 31.728 18.2879C31.728 19.0559 32.4 18.8639 32.4 18.8639C32.4 18.8639 30.768 19.4399 30.768 20.3039C30.768 21.1679 31.248 21.264 31.248 21.264C31.248 21.264 28.656 20.8799 28.464 21.1679C28.272 21.456 28.656 21.936 28.656 21.936C28.656 21.936 26.8588 21.6687 25.5839 22.224C24.7443 22.5897 24.24 23.472 24.24 23.952C24.24 24.432 24.24 25.0079 27.024 25.2959C22.5119 26.6399 20.496 23.6639 20.496 23.6639L20.016 24.048C20.016 24.048 19.728 24.144 19.728 23.088C19.728 22.0319 20.88 19.8239 20.88 19.8239C20.88 19.8239 20.976 20.4 21.552 20.4C22.1279 20.4 24.048 17.2319 24.048 17.0399C24.048 16.9536 23.8734 16.9255 23.6812 16.8946C23.4458 16.8567 23.184 16.8145 23.184 16.6559C24.2399 16.2719 25.584 15.024 25.584 14.736C25.584 14.634 25.5359 14.5802 25.4737 14.5106C25.3603 14.3836 25.2 14.2042 25.2 13.584C25.2 12.624 26.544 10.1279 29.04 9.45595C31.5359 8.78395 35.184 8.97595 35.184 8.97595C35.184 8.97595 26.8319 8.78394 27.024 12.816C27.8879 11.3759 28.464 11.1839 28.464 11.1839C28.464 11.1839 28.2719 11.8559 28.656 12.336C29.04 11.1839 29.904 11.0879 29.904 11.0879C29.904 11.0879 29.8079 12.0479 30.192 12.048C30.3839 10.6079 31.344 9.83996 31.824 9.64795C34.5119 8.68794 38.6339 9.81764 40.5961 10.3985C41.1983 10.5769 41.6276 10.7039 41.808 10.7039C42.2614 10.7039 43.0829 10.4697 43.6799 10.2778C43.7513 10.3275 43.8225 10.3775 43.8934 10.428ZM25.968 16.9439C25.584 17.2511 25.552 17.7119 25.584 17.9039C25.712 17.9039 26.0448 17.8463 26.3519 17.6159C26.6591 17.3855 27.1199 16.6239 27.3119 16.2719C27.0239 16.3679 26.352 16.6367 25.968 16.9439Z" fill="white"/>
<circle cx="48" cy="12" r="12" fill="#23C68B"/>
<path d="M43 8.35156C43 7.65365 43.2266 7.08854 43.6797 6.65625C44.1328 6.21875 44.7266 6 45.4609 6C46.2057 6 46.8047 6.21615 47.2578 6.64844C47.7109 7.07552 47.9375 7.65625 47.9375 8.39062V8.95312C47.9375 9.65625 47.7109 10.2214 47.2578 10.6484C46.8047 11.0755 46.2109 11.2891 45.4766 11.2891C44.737 11.2891 44.138 11.0755 43.6797 10.6484C43.2266 10.2161 43 9.63542 43 8.90625V8.35156ZM44.5 8.95312C44.5 9.26562 44.5885 9.51823 44.7656 9.71094C44.9479 9.89844 45.1849 9.99219 45.4766 9.99219C45.7682 9.99219 46 9.89583 46.1719 9.70312C46.3438 9.51042 46.4297 9.2526 46.4297 8.92969V8.35156C46.4297 8.03906 46.3438 7.78646 46.1719 7.59375C46 7.40104 45.763 7.30469 45.4609 7.30469C45.1745 7.30469 44.9427 7.40104 44.7656 7.59375C44.5885 7.78125 44.5 8.04427 44.5 8.38281V8.95312ZM48.4375 14.75C48.4375 14.0469 48.6667 13.4818 49.125 13.0547C49.5833 12.6224 50.1771 12.4062 50.9062 12.4062C51.6458 12.4062 52.2422 12.6198 52.6953 13.0469C53.1536 13.4688 53.3828 14.0521 53.3828 14.7969V15.3594C53.3828 16.0573 53.1589 16.6224 52.7109 17.0547C52.263 17.4818 51.6667 17.6953 50.9219 17.6953C50.1719 17.6953 49.5703 17.4792 49.1172 17.0469C48.6641 16.6146 48.4375 16.0417 48.4375 15.3281V14.75ZM49.9375 15.3594C49.9375 15.6458 50.0312 15.8906 50.2188 16.0938C50.4062 16.2969 50.6406 16.3984 50.9219 16.3984C51.5573 16.3984 51.875 16.0469 51.875 15.3438V14.75C51.875 14.4375 51.7865 14.1875 51.6094 14C51.4323 13.8073 51.1979 13.7109 50.9062 13.7109C50.6146 13.7109 50.3802 13.8073 50.2031 14C50.026 14.1875 49.9375 14.4453 49.9375 14.7734V15.3594ZM45.9219 16.6875L44.8203 16.0938L50.375 7.20312L51.4766 7.79688L45.9219 16.6875Z" fill="white"/>
</svg>
