<svg id="farming" width="24" height="24" viewBox="0 0 24 24" fill="none" xmlns="http://www.w3.org/2000/svg">
<path fill-rule="evenodd" clip-rule="evenodd" d="M5.64043 2.23431C5.32802 1.9219 4.82148 1.9219 4.50906 2.23431C4.19664 2.54673 4.19664 3.05327 4.50906 3.36569C4.58878 3.4454 4.76862 3.61735 4.99923 3.83785C5.25943 4.08664 5.58426 4.39723 5.90284 4.70686C6.00716 4.80825 6.1108 4.90952 6.21224 5.00932C5.6548 5.05061 5.07009 5.11262 4.52566 5.20171C3.92736 5.29962 3.32515 5.43824 2.8533 5.64326C2.61878 5.74515 2.36762 5.88394 2.16425 6.08105C1.95175 6.28701 1.75537 6.596 1.75537 6.99896C1.75537 7.69676 2.28672 8.11211 2.67841 8.32848C3.10709 8.56528 3.67064 8.73915 4.28497 8.87451C4.34801 8.8884 4.41217 8.902 4.47741 8.91533C3.73569 10.3769 3.01436 11.8854 3.01436 14.5571C3.01436 17.0332 4.48648 18.7239 6.31524 19.7547C8.12549 20.7751 10.3675 21.2093 12.2123 21.2093C14.0642 21.2093 15.922 20.7717 17.3406 19.7621C18.7112 18.7866 19.625 17.3061 19.7221 15.3297C20.1483 14.8456 20.267 14.235 20.2036 13.6905C20.1297 13.0561 19.8092 12.4424 19.3586 12.0304C19.0325 11.7323 18.5265 11.755 18.2283 12.081C17.9302 12.4071 17.9529 12.9132 18.2789 13.2113C18.4465 13.3645 18.5851 13.625 18.6143 13.8755C18.6406 14.1016 18.5773 14.2416 18.4492 14.3381C18.4232 14.3576 18.3985 14.3788 18.3751 14.4013C17.4778 15.2673 15.6755 15.9337 13.6629 16.0502C11.6608 16.1661 9.68854 15.7234 8.43536 14.6492C8.0999 14.3617 7.59486 14.4005 7.30732 14.736C7.01978 15.0715 7.05863 15.5765 7.39409 15.864C9.08019 17.3093 11.5282 17.7765 13.7553 17.6476C15.198 17.5641 16.6488 17.2244 17.8384 16.6574C17.5447 17.4178 17.0453 18.0084 16.4128 18.4585C15.3425 19.2203 13.8411 19.6093 12.2123 19.6093C10.5763 19.6093 8.61944 19.2169 7.1009 18.3609C5.60086 17.5154 4.61436 16.28 4.61436 14.5571C4.61436 12.1821 5.23562 10.9578 5.98418 9.48262C6.03582 9.38085 6.08807 9.27788 6.14077 9.17326C7.02272 9.27668 8.00124 9.34982 9.02247 9.39861C10.1812 9.45397 11.4084 9.47855 12.6329 9.47855C14.1865 9.47855 15.5889 9.43898 16.7901 9.35894C18.1431 9.26877 19.2751 9.1252 20.0866 8.91625C20.4861 8.81339 20.8634 8.68115 21.1588 8.49735C21.434 8.32608 21.8308 7.98277 21.8308 7.41886C21.8308 6.96475 21.5233 6.68364 21.3896 6.57536C21.2207 6.43863 21.0165 6.32942 20.8254 6.24172C20.4352 6.06255 19.9273 5.89639 19.4062 5.74933C18.3538 5.45235 17.1135 5.19657 16.3225 5.05338C16.2313 5.03687 16.1583 4.97343 16.1289 4.88965C15.9468 4.36918 15.7261 3.79974 15.4281 3.35364C15.1314 2.90939 14.641 2.41982 13.8925 2.4199C13.6832 2.41992 13.4625 2.46879 13.3003 2.50879C13.1726 2.54027 13.028 2.58051 12.8904 2.61878L12.8903 2.61881C12.8415 2.6324 12.7935 2.64574 12.7475 2.65836C12.3547 2.76611 12.0321 2.8398 11.7931 2.83979C11.5722 2.83979 11.3716 2.77952 11.1202 2.683C11.0941 2.67299 11.0647 2.66146 11.0331 2.64905C10.933 2.60979 10.8106 2.56181 10.7018 2.52587C10.5507 2.47597 10.345 2.4199 10.1135 2.4199C9.37019 2.4199 8.68014 2.8843 8.20213 3.42466C8.00241 3.65043 7.81964 3.91068 7.66644 4.19804C7.45324 3.98451 7.23067 3.7662 7.01798 3.55949C6.66617 3.21756 6.33767 2.90375 6.08477 2.66216L6.08473 2.66212C5.87414 2.46095 5.71598 2.30986 5.64043 2.23431ZM8.81005 5.81888C8.86156 5.30386 9.09697 4.82792 9.40053 4.48477C9.72144 4.122 10.0066 4.02342 10.1081 4.01999C10.1138 4.02097 10.1409 4.02564 10.2 4.04514C10.2644 4.06641 10.3249 4.09015 10.4084 4.12288L10.4084 4.12289C10.4483 4.13853 10.4934 4.15622 10.5467 4.17668C10.8421 4.2901 11.2682 4.43978 11.7931 4.43979C12.2777 4.4398 12.7981 4.30356 13.1707 4.20137C13.2318 4.18461 13.2888 4.16877 13.3424 4.15384L13.3427 4.15377L13.3427 4.15376C13.4708 4.11812 13.5803 4.08767 13.6833 4.06227C13.8242 4.02752 13.8828 4.02102 13.8916 4.02005C13.8925 4.01994 13.8929 4.0199 13.8927 4.0199L13.8932 4.0199L13.8932 4.01992L13.8969 4.02169C13.9004 4.02345 13.9061 4.0267 13.9142 4.03229C13.9497 4.05709 14.0135 4.11638 14.0976 4.24232C14.2724 4.50399 14.438 4.9016 14.6188 5.4182C14.8397 6.04944 15.3833 6.50935 16.0375 6.62779C16.8024 6.76626 17.9876 7.0115 18.9716 7.28919C19.1351 7.33533 19.2895 7.3814 19.433 7.42696C18.7733 7.57035 17.8475 7.68492 16.6837 7.76248C15.5271 7.83955 14.1616 7.87855 12.6329 7.87855C11.4288 7.87855 10.2275 7.85436 9.09883 7.80043C7.31122 7.71502 5.73849 7.55638 4.62924 7.31198C4.22646 7.22324 3.91334 7.12911 3.68427 7.03647C3.96458 6.94038 4.33957 6.85344 4.78404 6.78071C5.88208 6.60103 7.20057 6.53927 8.01402 6.53927C8.42502 6.53927 8.76916 6.22784 8.81005 5.81888ZM20.3828 7.81895C20.3965 7.83001 20.3928 7.82922 20.3798 7.81653L20.3828 7.81895ZM20.3462 7.11615C20.3451 7.117 20.3437 7.11822 20.3419 7.11984C20.3464 7.11648 20.3483 7.11477 20.3481 7.11475C20.348 7.11474 20.3473 7.1152 20.3462 7.11615ZM3.30266 6.82491C3.30315 6.82485 3.30653 6.828 3.31138 6.83456C3.3046 6.82825 3.30218 6.82497 3.30266 6.82491Z" fill="currentColor"/>
<path d="M12.0889 11.0215C12.1792 11.6242 12.2875 12.4225 12.0889 13.2815" stroke="currentColor" stroke-width="1.6" stroke-linecap="round" stroke-linejoin="round"/>
<path d="M15.7505 11.0215C15.8408 11.6242 15.8865 12.1991 15.7505 13.2815" stroke="currentColor" stroke-width="1.6" stroke-linecap="round" stroke-linejoin="round"/>
</svg>
