<svg id="governance" width="24" height="24" viewBox="0 0 24 24" fill="none" xmlns="http://www.w3.org/2000/svg">
<path fill-rule="evenodd" clip-rule="evenodd" d="M2 16C2 10.4772 6.47715 6 12 6C17.5228 6 22 10.4772 22 16C22 16.5523 22.4477 17 23 17C23.5523 17 24 16.5523 24 16C24 9.37258 18.6274 4 12 4C5.37258 4 0 9.37258 0 16C0 16.5523 0.447715 17 1 17C1.55228 17 2 16.5523 2 16ZM17.5655 11.5658C17.8779 11.2533 17.8779 10.7468 17.5655 10.4344C17.2531 10.122 16.7465 10.122 16.4341 10.4344L11.4341 15.4344C11.1217 15.7468 11.1217 16.2533 11.4341 16.5658C11.7465 16.8782 12.2531 16.8782 12.5655 16.5658L17.5655 11.5658Z" fill="currentColor"/>
<circle cx="12" cy="16" r="2" fill="currentColor"/>
</svg>
