<svg id="pools" width="24" height="24" viewBox="0 0 24 24" fill="none" xmlns="http://www.w3.org/2000/svg">
<path fill-rule="evenodd" clip-rule="evenodd" d="M22 12C22 17.5228 17.5228 22 12 22C6.47715 22 2 17.5228 2 12C2 6.47715 6.47715 2 12 2C17.5228 2 22 6.47715 22 12ZM20.1213 13C19.6282 17.047 16.1802 20.1818 12 20.1818C7.48131 20.1818 3.81818 16.5187 3.81818 12C3.81818 7.81984 6.953 4.37185 11 3.87868V8.50287C9.47794 8.93727 8.36364 10.3385 8.36364 12C8.36364 14.0083 9.99169 15.6364 12 15.6364C13.6615 15.6364 15.0627 14.5221 15.4971 13H20.1213ZM13 3.87868V8.50287C14.2043 8.8466 15.1534 9.79565 15.4971 11H20.1213C19.6681 7.28075 16.7193 4.33191 13 3.87868ZM12 13.8182C13.0042 13.8182 13.8182 13.0042 13.8182 12C13.8182 10.9958 13.0042 10.1818 12 10.1818C10.9958 10.1818 10.1818 10.9958 10.1818 12C10.1818 13.0042 10.9958 13.8182 12 13.8182Z" fill="currentColor"/>
</svg>
